<svg width="96" height="96" viewBox="0 0 96 96" fill="none" xmlns="http://www.w3.org/2000/svg">
<g clip-path="url(#clip0_13097_26247)">
<g clip-path="url(#clip1_13097_26247)">
<mask id="mask0_13097_26247" style="mask-type:alpha" maskUnits="userSpaceOnUse" x="3" y="0" width="90" height="97">
<path fill-rule="evenodd" clip-rule="evenodd" d="M43.1318 1.30557C46.145 -0.430956 49.855 -0.430957 52.8682 1.30556L87.3682 21.1882C90.3887 22.9289 92.25 26.15 92.25 29.6364V66.3699C92.25 69.8563 90.3887 73.0774 87.3682 74.8182L52.8682 94.7008C49.855 96.4373 46.145 96.4373 43.1318 94.7008L8.63184 74.8182C5.61132 73.0774 3.75 69.8563 3.75 66.3699V29.6364C3.75 26.15 5.61133 22.9289 8.63184 21.1882L43.1318 1.30557ZM44.9471 18.8141C46.8367 17.7287 49.1633 17.7287 51.0529 18.8141L72.6885 31.2407C74.5827 32.3287 75.75 34.3419 75.75 36.5208V59.4793C75.75 61.6583 74.5827 63.6715 72.6885 64.7594L51.0529 77.1861C49.1633 78.2714 46.8367 78.2714 44.9471 77.1861L23.3115 64.7594C21.4173 63.6715 20.25 61.6583 20.25 59.4793V36.5208C20.25 34.3419 21.4173 32.3287 23.3115 31.2407L44.9471 18.8141Z" fill="white"/>
</mask>
<g mask="url(#mask0_13097_26247)">
<path d="M52.8682 1.30556C49.855 -0.430957 46.145 -0.430956 43.1318 1.30557L8.63184 21.1882C5.61133 22.9289 3.75 26.15 3.75 29.6364V66.3699C3.75 69.8563 5.61133 73.0774 8.63184 74.8182L43.1318 94.7008C46.145 96.4373 49.855 96.4373 52.8682 94.7008L87.3682 74.8182C90.3887 73.0774 92.25 69.8563 92.25 66.3699V29.6364C92.25 26.15 90.3887 22.9289 87.3682 21.1882L52.8682 1.30556Z" fill="#33BBFF"/>
<mask id="mask1_13097_26247" style="mask-type:alpha" maskUnits="userSpaceOnUse" x="3" y="0" width="90" height="97">
<path d="M43.1318 1.30556C46.145 -0.430957 49.855 -0.430956 52.8682 1.30557L87.3682 21.1882C90.3887 22.9289 92.25 26.15 92.25 29.6364V66.3699C92.25 69.8563 90.3887 73.0774 87.3682 74.8182L52.8682 94.7008C49.855 96.4373 46.145 96.4373 43.1318 94.7008L8.63184 74.8182C5.61133 73.0774 3.75 69.8563 3.75 66.3699V29.6364C3.75 26.15 5.61133 22.9289 8.63184 21.1882L43.1318 1.30556Z" fill="url(#paint0_linear_13097_26247)"/>
</mask>
<g mask="url(#mask1_13097_26247)">
<mask id="mask2_13097_26247" style="mask-type:alpha" maskUnits="userSpaceOnUse" x="3" y="0" width="90" height="97">
<path d="M43.1318 1.30556C46.145 -0.430957 49.855 -0.430956 52.8682 1.30557L87.3682 21.1882C90.3887 22.9289 92.25 26.15 92.25 29.6364V66.3699C92.25 69.8563 90.3887 73.0774 87.3682 74.8182L52.8682 94.7008C49.855 96.4373 46.145 96.4373 43.1318 94.7008L8.63184 74.8182C5.61133 73.0774 3.75 69.8563 3.75 66.3699V29.6364C3.75 26.15 5.61133 22.9289 8.63184 21.1882L43.1318 1.30556Z" fill="url(#paint1_linear_13097_26247)"/>
</mask>
<g mask="url(#mask2_13097_26247)">
<mask id="mask3_13097_26247" style="mask-type:alpha" maskUnits="userSpaceOnUse" x="3" y="0" width="90" height="97">
<path d="M43.1318 1.30556C46.145 -0.430957 49.855 -0.430956 52.8682 1.30557L87.3682 21.1882C90.3887 22.9289 92.25 26.15 92.25 29.6364V66.3699C92.25 69.8563 90.3887 73.0774 87.3682 74.8182L52.8682 94.7008C49.855 96.4373 46.145 96.4373 43.1318 94.7008L8.63184 74.8182C5.61133 73.0774 3.75 69.8563 3.75 66.3699V29.6364C3.75 26.15 5.61133 22.9289 8.63184 21.1882L43.1318 1.30556Z" fill="url(#paint2_linear_13097_26247)"/>
</mask>
<g mask="url(#mask3_13097_26247)">
<mask id="mask4_13097_26247" style="mask-type:alpha" maskUnits="userSpaceOnUse" x="3" y="0" width="90" height="97">
<path d="M43.1318 1.30556C46.145 -0.430957 49.855 -0.430956 52.8682 1.30557L87.3682 21.1882C90.3887 22.9289 92.25 26.15 92.25 29.6364V66.3699C92.25 69.8563 90.3887 73.0774 87.3682 74.8182L52.8682 94.7008C49.855 96.4373 46.145 96.4373 43.1318 94.7008L8.63184 74.8182C5.61133 73.0774 3.75 69.8563 3.75 66.3699V29.6364C3.75 26.15 5.61133 22.9289 8.63184 21.1882L43.1318 1.30556Z" fill="url(#paint3_linear_13097_26247)"/>
</mask>
<g mask="url(#mask4_13097_26247)">
<mask id="mask5_13097_26247" style="mask-type:alpha" maskUnits="userSpaceOnUse" x="3" y="0" width="90" height="97">
<path d="M43.1318 1.30556C46.145 -0.430957 49.855 -0.430956 52.8682 1.30557L87.3682 21.1882C90.3887 22.9289 92.25 26.15 92.25 29.6364V66.3699C92.25 69.8563 90.3887 73.0774 87.3682 74.8182L52.8682 94.7008C49.855 96.4373 46.145 96.4373 43.1318 94.7008L8.63184 74.8182C5.61133 73.0774 3.75 69.8563 3.75 66.3699V29.6364C3.75 26.15 5.61133 22.9289 8.63184 21.1882L43.1318 1.30556Z" fill="url(#paint4_linear_13097_26247)"/>
</mask>
<g mask="url(#mask5_13097_26247)">
<path opacity="0.3" d="M43.1318 1.30565C46.145 -0.430985 49.855 -0.430984 52.8682 1.30565L87.3682 21.1895C90.3887 22.9304 92.25 26.1517 92.25 29.6383V66.3742C92.25 69.8608 90.3887 73.0821 87.3682 74.8229L52.8682 94.7068C49.855 96.4435 46.145 96.4435 43.1318 94.7068L8.63184 74.8229C5.61133 73.0821 3.75 69.8608 3.75 66.3742V29.6383C3.75 26.1517 5.61133 22.9304 8.63184 21.1896L43.1318 1.30565Z" fill="#002355"/>
</g>
</g>
</g>
</g>
</g>
</g>
<path d="M40.0712 60.3917H44.533V32.1333H40.0712V60.3917Z" fill="black"/>
<path d="M53.7046 39.5697H59.158L51.2258 49.7329L59.158 60.3917H53.7046L47.0118 51.2201V48.2456L53.7046 39.5697Z" fill="black"/>
</g>
</g>
<defs>
<linearGradient id="paint0_linear_13097_26247" x1="63.4313" y1="5.84421" x2="17.0709" y2="81.257" gradientUnits="userSpaceOnUse">
<stop offset="0.167089" stop-color="white" stop-opacity="0"/>
<stop offset="0.299135" stop-color="white"/>
</linearGradient>
<linearGradient id="paint1_linear_13097_26247" x1="32.5688" y1="5.8442" x2="78.9292" y2="81.257" gradientUnits="userSpaceOnUse">
<stop offset="0.164649" stop-color="white" stop-opacity="0"/>
<stop offset="0.299135" stop-color="white"/>
</linearGradient>
<linearGradient id="paint2_linear_13097_26247" x1="88.9573" y1="75.1755" x2="39.5683" y2="2.02664" gradientUnits="userSpaceOnUse">
<stop offset="0.118237" stop-color="white" stop-opacity="0"/>
<stop offset="0.270982" stop-color="white"/>
</linearGradient>
<linearGradient id="paint3_linear_13097_26247" x1="7.04271" y1="75.1755" x2="56.4317" y2="2.02662" gradientUnits="userSpaceOnUse">
<stop offset="0.107678" stop-color="white" stop-opacity="0"/>
<stop offset="0.274608" stop-color="white"/>
</linearGradient>
<linearGradient id="paint4_linear_13097_26247" x1="3.75" y1="48.8366" x2="92.25" y2="48.8366" gradientUnits="userSpaceOnUse">
<stop offset="0.0372058" stop-color="white" stop-opacity="0"/>
<stop offset="0.161458" stop-color="white" stop-opacity="0.3"/>
<stop offset="0.213542" stop-color="white"/>
<stop offset="0.791667" stop-color="white"/>
<stop offset="0.838542" stop-color="white" stop-opacity="0.3"/>
<stop offset="0.961935" stop-color="white" stop-opacity="0"/>
</linearGradient>
<clipPath id="clip0_13097_26247">
<rect width="96" height="96" fill="white"/>
</clipPath>
<clipPath id="clip1_13097_26247">
<rect width="96" height="96" fill="white"/>
</clipPath>
</defs>
</svg>
