<?xml version="1.0" encoding="utf-8"?>
<!-- Generator: Adobe Illustrator 27.2.0, SVG Export Plug-In . SVG Version: 6.00 Build 0)  -->
<svg version="1.1" xmlns="http://www.w3.org/2000/svg" xmlns:xlink="http://www.w3.org/1999/xlink" x="0px" y="0px"
	 viewBox="0 0 56 62" style="enable-background:new 0 0 56 62;" xml:space="preserve">
<style type="text/css">
	.st0{display:none;}
	.st1{display:inline;fill:#FFFFFF;}
	.st2{display:inline;}
	.st3{clip-path:url(#SVGID_00000125577335911608211360000001619261514479007904_);}
	
		.st4{clip-path:url(#SVGID_00000097458200865058490840000016789077067667556518_);fill-rule:evenodd;clip-rule:evenodd;fill:#00A78E;}
	
		.st5{clip-path:url(#SVGID_00000097458200865058490840000016789077067667556518_);fill-rule:evenodd;clip-rule:evenodd;fill:#58595B;}
	.st6{clip-path:url(#SVGID_00000097493196787361348870000004755012264996363693_);}
	
		.st7{clip-path:url(#SVGID_00000067946895006068976970000009517037332684441742_);fill-rule:evenodd;clip-rule:evenodd;fill:#00A78E;}
	
		.st8{clip-path:url(#SVGID_00000067946895006068976970000009517037332684441742_);fill-rule:evenodd;clip-rule:evenodd;fill:#58595B;}
	.st9{clip-path:url(#SVGID_00000124865396329937205830000017544351642883225986_);}
	
		.st10{clip-path:url(#SVGID_00000007419043222167798620000016912963859330759863_);fill-rule:evenodd;clip-rule:evenodd;fill:#00A78E;}
	
		.st11{clip-path:url(#SVGID_00000007419043222167798620000016912963859330759863_);fill-rule:evenodd;clip-rule:evenodd;fill:#58595B;}
	.st12{fill:#FFFFFF;}
	.st13{clip-path:url(#SVGID_00000168084681942668889490000003474051036221637526_);}
	
		.st14{clip-path:url(#SVGID_00000003089317777870174090000004636335913530890121_);fill-rule:evenodd;clip-rule:evenodd;fill:#00A78E;}
	
		.st15{clip-path:url(#SVGID_00000003089317777870174090000004636335913530890121_);fill-rule:evenodd;clip-rule:evenodd;fill:#FFFFFF;}
	.st16{clip-path:url(#SVGID_00000119819781184303625620000015471080490708999843_);}
	
		.st17{clip-path:url(#SVGID_00000046317783925998610670000004730365894015606921_);fill-rule:evenodd;clip-rule:evenodd;fill:#00A78E;}
	
		.st18{clip-path:url(#SVGID_00000046317783925998610670000004730365894015606921_);fill-rule:evenodd;clip-rule:evenodd;fill:#FFFFFF;}
	.st19{clip-path:url(#SVGID_00000115493947972751334310000002840576945542681492_);}
	
		.st20{clip-path:url(#SVGID_00000014632622286598985890000001999702965035429551_);fill-rule:evenodd;clip-rule:evenodd;fill:#00A78E;}
	
		.st21{clip-path:url(#SVGID_00000014632622286598985890000001999702965035429551_);fill-rule:evenodd;clip-rule:evenodd;fill:#FFFFFF;}
</style>
<g id="back" class="st0">
	<rect x="-72.633" y="-74.619" class="st1" width="515" height="365"/>
</g>
<g id="icons">
	<g id="Kaspersky_Industrial_CyberSecurity_1_">
		<g>
			<defs>
				<rect id="SVGID_1_" x="0" y="0" width="56" height="62"/>
			</defs>
			<clipPath id="SVGID_00000078006365525479018680000016521610005678894753_">
				<use xlink:href="#SVGID_1_"  style="overflow:visible;"/>
			</clipPath>
			<g style="clip-path:url(#SVGID_00000078006365525479018680000016521610005678894753_);">
				<defs>
					<rect id="SVGID_00000032611721663272891690000014495553567872072591_" x="0" y="0" width="56" height="62"/>
				</defs>
				<clipPath id="SVGID_00000108279510073060742190000001275279401773081275_">
					<use xlink:href="#SVGID_00000032611721663272891690000014495553567872072591_"  style="overflow:visible;"/>
				</clipPath>
				
					<path style="clip-path:url(#SVGID_00000108279510073060742190000001275279401773081275_);fill-rule:evenodd;clip-rule:evenodd;fill:#00A78E;" d="
					M3.32,13.1L24.73,0.87c2.03-1.16,4.51-1.16,6.54,0L52.68,13.1c2.05,1.17,3.32,3.36,3.32,5.72v24.35c0,2.37-1.27,4.55-3.32,5.73
					L31.27,61.13c-2.03,1.16-4.51,1.16-6.54,0L3.32,48.9C1.27,47.73,0,45.54,0,43.17V18.82C0,16.45,1.27,14.27,3.32,13.1
					 M51.685,47.165C53.117,46.339,54,44.819,54,43.17V18.82c0-1.643-0.886-3.169-2.311-3.983L30.278,2.607
					c-1.415-0.809-3.141-0.809-4.556-0.001l-21.41,12.23C2.885,15.651,2,17.169,2,18.82v24.35c0,1.654,0.887,3.18,2.311,3.993
					l21.411,12.23c1.415,0.809,3.141,0.809,4.556,0l21.404-12.227C51.683,47.166,51.684,47.166,51.685,47.165"/>
				
					<path style="clip-path:url(#SVGID_00000108279510073060742190000001275279401773081275_);fill-rule:evenodd;clip-rule:evenodd;fill:#58595B;" d="
					M26,13c0,0.179,0.024,0.352,0.068,0.517l-12.626,7.101C13.078,20.238,12.565,20,12,20c-1.1,0-2,0.9-2,2
					c0,0.928,0.64,1.713,1.5,1.936v14.128C10.64,38.287,10,39.073,10,40c0,1.1,0.9,2,2,2c0.565,0,1.078-0.237,1.442-0.618
					l12.626,7.102C26.024,48.648,26,48.822,26,49c0,1.1,0.9,2,2,2s2-0.9,2-2c0-0.178-0.023-0.352-0.068-0.516l12.626-7.102
					C42.923,41.763,43.435,42,44,42c1.1,0,2-0.9,2-2c0-0.927-0.64-1.713-1.5-1.936V23.936C45.36,23.713,46,22.928,46,22
					c0-1.1-0.9-2-2-2c-0.565,0-1.077,0.238-1.442,0.618l-12.626-7.101C29.977,13.352,30,13.179,30,13c0-1.1-0.9-2-2-2S26,11.9,26,13
					 M42.068,21.484l-12.625-7.102c-0.253,0.264-0.578,0.46-0.943,0.554V20h-1v-5.064c-0.364-0.094-0.689-0.29-0.942-0.554
					l-12.625,7.102C13.977,21.649,14,21.822,14,22c0,0.177-0.023,0.35-0.067,0.514l2.421,1.361c-0.212,0.26-0.412,0.531-0.598,0.811
					l-2.315-1.302c-0.253,0.263-0.577,0.458-0.941,0.552v14.128c0.364,0.094,0.688,0.289,0.941,0.552l2.831-1.593
					c0.212,0.268,0.437,0.524,0.673,0.769l-3.012,1.695C13.977,39.651,14,39.823,14,40c0,0.178-0.023,0.351-0.067,0.516
					l12.625,7.102c0.253-0.264,0.578-0.46,0.942-0.554V41h1v6.064c0.365,0.094,0.69,0.29,0.943,0.554l12.625-7.102
					C42.024,40.351,42,40.178,42,40c0-0.177,0.024-0.349,0.068-0.513l-3.013-1.695c0.237-0.245,0.462-0.501,0.674-0.769l2.831,1.593
					c0.253-0.263,0.577-0.458,0.94-0.552V23.936c-0.363-0.094-0.687-0.289-0.94-0.552l-2.315,1.302
					c-0.186-0.28-0.386-0.551-0.598-0.811l2.421-1.361C42.024,22.35,42,22.177,42,22C42,21.822,42.024,21.649,42.068,21.484
					 M18.617,35l1.092-1.872c0.168-0.288,0.36-0.684,0.408-0.972h0.252c0.06,0.288,0.24,0.672,0.408,0.972L21.857,35h2.208
					l-2.616-4.224l2.532-4.176h-2.136l-1.104,1.932c-0.168,0.3-0.3,0.6-0.336,0.852h-0.252c-0.048-0.252-0.156-0.552-0.324-0.852
					L18.713,26.6h-2.22l2.556,4.176L16.421,35H18.617z M28.477,35c2.352,0,3.948-1.644,3.948-4.2s-1.596-4.2-3.948-4.2h-3.48V35
					H28.477z M26.893,28.328h1.428c1.62,0,2.172,1.236,2.172,2.472c0,1.224-0.552,2.472-2.172,2.472h-1.428V28.328z M37.932,31.928
					c1.416-0.228,2.22-1.272,2.22-2.628c0-1.56-1.056-2.7-2.904-2.7H33.54V35h1.896v-3.036h0.24L37.896,35h2.256l-2.22-2.892V31.928
					z M35.436,28.268h1.656c0.78,0,1.14,0.444,1.14,1.056c0,0.6-0.36,1.056-1.14,1.056h-1.656V28.268z"/>
			</g>
		</g>
	</g>
</g>
</svg>
