<?xml version="1.0" encoding="utf-8"?>
<!-- Generator: Adobe Illustrator 27.2.0, SVG Export Plug-In . SVG Version: 6.00 Build 0)  -->
<svg version="1.1" xmlns="http://www.w3.org/2000/svg" xmlns:xlink="http://www.w3.org/1999/xlink" x="0px" y="0px"
	 viewBox="0 0 56 62" style="enable-background:new 0 0 56 62;" xml:space="preserve">
<style type="text/css">
	.st0{display:none;}
	.st1{display:inline;fill:#FFFFFF;}
	.st2{display:inline;}
	.st3{clip-path:url(#SVGID_00000178174838987231726900000000520290139981086652_);}
	.st4{clip-path:url(#SVGID_00000051381984163899659300000003907414728874994562_);fill:#00A78E;}
	
		.st5{clip-path:url(#SVGID_00000051381984163899659300000003907414728874994562_);fill-rule:evenodd;clip-rule:evenodd;fill:#58595B;}
	.st6{clip-path:url(#SVGID_00000051381984163899659300000003907414728874994562_);fill:#58595B;}
	.st7{clip-path:url(#SVGID_00000110435595935122492670000017879648795738796176_);}
	.st8{clip-path:url(#SVGID_00000119081743418009181230000005390343581918256280_);fill:#00A78E;}
	
		.st9{clip-path:url(#SVGID_00000119081743418009181230000005390343581918256280_);fill-rule:evenodd;clip-rule:evenodd;fill:#58595B;}
	.st10{clip-path:url(#SVGID_00000119081743418009181230000005390343581918256280_);fill:#58595B;}
	.st11{clip-path:url(#SVGID_00000116195558325478127160000000781165418669057457_);}
	.st12{clip-path:url(#SVGID_00000178884612494729914490000007518652315063715754_);fill:#00A78E;}
	
		.st13{clip-path:url(#SVGID_00000178884612494729914490000007518652315063715754_);fill-rule:evenodd;clip-rule:evenodd;fill:#58595B;}
	.st14{clip-path:url(#SVGID_00000178884612494729914490000007518652315063715754_);fill:#58595B;}
	.st15{fill:#FFFFFF;}
	.st16{clip-path:url(#SVGID_00000070078145984703196290000016620655857179367818_);}
	.st17{clip-path:url(#SVGID_00000005262303495406071570000015441569120587764111_);fill:#00A78E;}
	
		.st18{clip-path:url(#SVGID_00000005262303495406071570000015441569120587764111_);fill-rule:evenodd;clip-rule:evenodd;fill:#FFFFFF;}
	.st19{clip-path:url(#SVGID_00000005262303495406071570000015441569120587764111_);fill:#FFFFFF;}
	.st20{clip-path:url(#SVGID_00000138570817674607283640000002520880762993155970_);}
	.st21{clip-path:url(#SVGID_00000067917253961399487580000012727990739697570440_);fill:#00A78E;}
	
		.st22{clip-path:url(#SVGID_00000067917253961399487580000012727990739697570440_);fill-rule:evenodd;clip-rule:evenodd;fill:#FFFFFF;}
	.st23{clip-path:url(#SVGID_00000067917253961399487580000012727990739697570440_);fill:#FFFFFF;}
	.st24{clip-path:url(#SVGID_00000182491490395366479100000017008416597193614473_);}
	.st25{clip-path:url(#SVGID_00000095331912076408196510000004033911033336839051_);fill:#00A78E;}
	
		.st26{clip-path:url(#SVGID_00000095331912076408196510000004033911033336839051_);fill-rule:evenodd;clip-rule:evenodd;fill:#FFFFFF;}
	.st27{clip-path:url(#SVGID_00000095331912076408196510000004033911033336839051_);fill:#FFFFFF;}
</style>
<g id="back" class="st0">
	<rect x="-72.633" y="-74.619" class="st1" width="515" height="365"/>
</g>
<g id="icons">
	<g id="Kaspersky_Industrial_CyberSecurity_1_">
		<g>
			<defs>
				<rect id="SVGID_1_" x="0" y="0" width="56" height="62"/>
			</defs>
			<clipPath id="SVGID_00000018239208304476271640000005731874386758317462_">
				<use xlink:href="#SVGID_1_"  style="overflow:visible;"/>
			</clipPath>
			<g style="clip-path:url(#SVGID_00000018239208304476271640000005731874386758317462_);">
				<defs>
					<rect id="SVGID_00000023269141788700345550000017943372638941647770_" x="0" y="0" width="56" height="62"/>
				</defs>
				<clipPath id="SVGID_00000047050980302196789950000004988812931419317162_">
					<use xlink:href="#SVGID_00000023269141788700345550000017943372638941647770_"  style="overflow:visible;"/>
				</clipPath>
				<path style="clip-path:url(#SVGID_00000047050980302196789950000004988812931419317162_);fill:#00A78E;" d="M28,2
					c0.798-0.001,1.583,0.206,2.277,0.6l21.41,12.235c0.703,0.403,1.286,0.983,1.692,1.684c0.407,0.7,0.621,1.495,0.621,2.305
					v24.351c-0.001,0.809-0.215,1.603-0.622,2.303c-0.406,0.7-0.989,1.28-1.691,1.682L30.277,59.4
					c-0.693,0.396-1.478,0.605-2.277,0.605c-0.799,0-1.584-0.209-2.277-0.605L4.313,47.16c-0.702-0.402-1.285-0.982-1.691-1.682
					c-0.407-0.7-0.621-1.494-0.622-2.303V18.824c0.001-0.809,0.215-1.603,0.622-2.303c0.406-0.7,0.989-1.28,1.691-1.682L25.723,2.6
					C26.417,2.206,27.202,1.999,28,2 M28,0c-1.147,0-2.274,0.299-3.27,0.868L3.32,13.1c-1.009,0.576-1.848,1.409-2.431,2.415
					C0.306,16.52-0.001,17.662,0,18.824v24.351c-0.001,1.162,0.306,2.304,0.889,3.31C1.472,47.49,2.311,48.324,3.32,48.9
					l21.41,12.231C25.726,61.7,26.853,62,28,62c1.147,0,2.274-0.3,3.27-0.869L52.68,48.9c1.009-0.577,1.848-1.41,2.431-2.415
					c0.583-1.006,0.89-2.148,0.889-3.31V18.824c0.001-1.162-0.306-2.304-0.889-3.309c-0.583-1.005-1.422-1.838-2.431-2.415
					L31.27,0.868C30.274,0.299,29.147,0,28,0"/>
				
					<path style="clip-path:url(#SVGID_00000047050980302196789950000004988812931419317162_);fill-rule:evenodd;clip-rule:evenodd;fill:#58595B;" d="
					M37,26.351v-10.27l-9-5.145l-9,5.145v10.27l-8.5,4.859v10.83l9.5,5.431V36.657l8-4.581l8,4.581v10.814l9.5-5.431V31.21
					L37,26.351z M36,26.331l-7.5,4.288v-9.098l7.5-4.288V26.331z M28,12.088l7.493,4.283L28,20.655l-7.493-4.284L28,12.088z
					 M20,17.233l7.5,4.288v9.098L20,26.331V17.233z M19,45.748l-7.5-4.288v-9.097l7.5,4.294V45.748z M19.5,35.791l-7.493-4.29
					l7.493-4.284l7.493,4.284L19.5,35.791z M29.007,31.501l7.493-4.284l7.493,4.284l-7.493,4.29L29.007,31.501z M44.5,41.46
					L37,45.748v-9.091l7.5-4.294V41.46z"/>
				<path style="clip-path:url(#SVGID_00000047050980302196789950000004988812931419317162_);fill:#58595B;" d="M28,33.364l-7,4.019
					v7.687c0,4.771,7,7.059,7,7.059s7-2.288,7-7.059v-7.687L28,33.364z M34,45.07c0,3.505-4.7,5.55-6,6.037
					c-1.3-0.487-6-2.532-6-6.037v-7.152l6-3.435l6,3.435V45.07z"/>
			</g>
		</g>
	</g>
</g>
</svg>
