<svg width="96" height="96" viewBox="0 0 96 96" fill="none" xmlns="http://www.w3.org/2000/svg">
<g clip-path="url(#clip0_13097_24665)">
<g clip-path="url(#clip1_13097_24665)">
<path fill-rule="evenodd" clip-rule="evenodd" d="M10.8788 25.0868L45.3788 5.20419C47.0012 4.26918 48.9988 4.26918 50.6212 5.20419L85.1212 25.0868C86.7476 26.0241 87.75 27.7587 87.75 29.6362V66.3697C87.75 68.2472 86.7476 69.9817 85.1212 70.919L50.6212 90.8017C48.9988 91.7367 47.0012 91.7367 45.3788 90.8017L10.8788 70.919C9.25238 69.9817 8.25 68.2472 8.25 66.3697V29.6362C8.25 27.7587 9.25239 26.0241 10.8788 25.0868ZM43.1318 1.30532C46.145 -0.4312 49.855 -0.431201 52.8682 1.30532L87.3682 21.188C90.3887 22.9287 92.25 26.1498 92.25 29.6362V66.3697C92.25 69.8561 90.3887 73.0772 87.3682 74.8179L52.8682 94.7005C49.855 96.4371 46.145 96.4371 43.1318 94.7005L8.63184 74.8179C5.61133 73.0772 3.75 69.8561 3.75 66.3697V29.6362C3.75 26.1498 5.61133 22.9287 8.63184 21.1879L43.1318 1.30532Z" fill="#29CCB1"/>
<path d="M36 66.75H42.75V24H36V66.75Z" fill="black"/>
<path d="M56.625 35.25H64.875L52.875 50.625L64.875 66.75H56.625L46.5 52.875V48.375L56.625 35.25Z" fill="black"/>
</g>
</g>
<defs>
<clipPath id="clip0_13097_24665">
<rect width="96" height="96" fill="white"/>
</clipPath>
<clipPath id="clip1_13097_24665">
<rect width="96" height="96" fill="white"/>
</clipPath>
</defs>
</svg>
